<svg xmlns="http://www.w3.org/2000/svg" viewBox="0 0 32 32" fill="none">
  <defs>
    <linearGradient id="grad" x1="0%" y1="0%" x2="100%" y2="100%">
      <stop offset="0%" style="stop-color:#6366f1;stop-opacity:1" />
      <stop offset="100%" style="stop-color:#4f46e5;stop-opacity:1" />
    </linearGradient>
  </defs>
  <rect width="32" height="32" rx="6" fill="url(#grad)"/>
  <path d="M16 6c-5.523 0-10 4.477-10 10s4.477 10 10 10 10-4.477 10-10S21.523 6 16 6zm0 2c4.418 0 8 3.582 8 8s-3.582 8-8 8-8-3.582-8-8 3.582-8 8-8z" fill="white" fill-opacity="0.3"/>
  <circle cx="16" cy="16" r="4" fill="white"/>
  <circle cx="16" cy="10" r="2" fill="white"/>
  <circle cx="16" cy="22" r="2" fill="white"/>
  <circle cx="10" cy="16" r="2" fill="white"/>
  <circle cx="22" cy="16" r="2" fill="white"/>
  <line x1="16" y1="12" x2="16" y2="20" stroke="white" stroke-width="1.5"/>
  <line x1="12" y1="16" x2="20" y2="16" stroke="white" stroke-width="1.5"/>
  <path d="M11 11 L14 14 M18 18 L21 21 M11 21 L14 18 M18 14 L21 11" stroke="white" stroke-width="1.5" stroke-linecap="round"/>
</svg>